<?xml version="1.0" encoding="UTF-8" standalone="no"?>
<svg
   xmlns:dc="http://purl.org/dc/elements/1.1/"
   xmlns:cc="http://creativecommons.org/ns#"
   xmlns:rdf="http://www.w3.org/1999/02/22-rdf-syntax-ns#"
   xmlns:svg="http://www.w3.org/2000/svg"
   xmlns="http://www.w3.org/2000/svg"
   viewBox="0 0 1750 1273"
   height="800"
   width="800"
   version="1.1"
   id="svg2">
  <metadata
     id="metadata8">
    <rdf:RDF>
      <cc:Work
         rdf:about="">
        <dc:format>image/svg+xml</dc:format>
        <dc:type
           rdf:resource="http://purl.org/dc/dcmitype/StillImage" />
        <dc:title></dc:title>
      </cc:Work>
    </rdf:RDF>
  </metadata>
  <defs
     id="defs6" />
  <path
     id="path3342"
     d="m 445.5368,1260.3774 0.2798,-12.6227 12.5,-3.3998 c 86.3329,-23.4818 169.6413,-62.291 250.3046,-116.6045 21.6348,-14.5674 54.9023,-39.6297 54.4411,-41.0135 -0.219,-0.6568 -4.8638,-3.8543 -10.3219,-7.1055 C 643.2778,1014.4283 545.02,941.13549 450.3396,854.06369 429.6559,835.04199 380.3414,785.90449 358.9481,762.99999 180.5946,572.04763 62.054497,360.05908 18.4066,153.99998 8.7628,108.47213 2.3059,58.553447 0.6664,16.850277 L 0,-0.10203342 6.4083,2.3337566 c 3.5246,1.33968 58.833297,22.7793104 122.9083,47.6436104 166.6481,64.667773 168.944,65.464203 304.4367,105.604623 62.1152,18.40194 113.1902,33.71169 113.5,34.02166 0.3099,0.30997 0.4154,15.03845 0.2346,32.72995 -0.7292,71.3433 7.8053,140.72171 26.8373,218.16638 39.0143,158.75637 118.1187,319.92841 223.5627,455.50001 28.91491,37.1765 73.62151,88 77.40871,88 2.7547,0 26.96638,-26.2437 52.834,-57.2683 132.54379,-158.9674 227.42059,-358.08969 261.64909,-549.13496 10.0437,-56.05859 13.7745,-98.67828 13.4235,-153.34671 -0.121,-18.83748 -0.032,-34.43372 0.1968,-34.6583 0.2292,-0.22459 50.1417,-15.11502 110.9167,-33.08986 134.5925,-39.80714 140.484,-41.85315 312,-108.352043 l 123.5,-47.88249042 0.3207,7.61633002 c 0.3596,8.5370104 -1.1628,33.2485804 -3.3954,55.1163204 -3.8106,37.324233 -12.1421,84.466813 -21.8263,123.500003 -60.4804,243.77385 -227.0666,496.24088 -463.599,702.59971 -78.2752,68.2899 -161.6555,129.12491 -251.25,183.31441 -12.5125,7.5679 -22.75,14.1335 -22.75,14.5903 0,1.0394 22.9632,18.4731 41.5,31.5068 84.3957,59.3407 173.6883,101.5869 269,127.2694 l 7,1.8862 0.2799,12.6666 0.2799,12.6666 -3.2799,-6e-4 c -5.2353,-10e-4 -37.4406,-3.7921 -60.2799,-7.0959 -85.6385,-12.3881 -177.8337,-38.246 -257.5,-72.2208 -39.76812,-16.9597 -71.45999,-30.8513 -87.00005,-38.1349 -9.075,-4.2535 -17.85004,-8.1823 -19.50004,-8.7307 -2.6877,-0.8934 -5.0814,-0.039 -23,8.2132 -20.2043,9.3045 -59.60201,26.5462 -89.00001,38.9493 -95.6207,40.3427 -198.208,66.8187 -300.3568,77.5168 -7.8962,0.827 -15.6722,1.5036 -17.2799,1.5036 l -2.923,0 0.2799,-12.6226 z"
     style="fill:#729FCF" />
</svg>
